#!OML:ASF F:\VICON\USERDATA\INSTALL\rory3\rory3.ASF
:FULLY-SPECIFIED
:DEGREES
988
root -7.87953 17.6431 3.32782 182.954 53.2197 177.621
lowerback 3.37308 0.578116 -2.61505
upperback 2.34126 0.754216 0.992936
thorax 0.466642 0.364147 2.4638
lowerneck -5.64111 -3.17329 -6.10118
upperneck 24.6023 -2.71381 1.13108
head 8.70729 -1.31419 1.23375
rclavicle 2.29596e-014 -1.66979e-014
rhumerus -38.0133 -7.65307 -77.0314
rradius 26.7534
rwrist -1.17953
rhand -10.5518 16.1875
rfingers 7.12502
rthumb 15.4522 -13.2149
lclavicle 2.29596e-014 -1.66979e-014
lhumerus -41.691 2.39067 81.2127
lradius 24.3359
lwrist 4.70771
lhand -4.69012 29.6255
lfingers 7.12502
lthumb 21.0911 58.4985
rfemur -29.6168 3.75911 18.3928
rtibia 22.3091
rfoot -4.98726 -12.4774
rtoes -21.6303
lfemur 7.72079 -4.11046 -27.1536
ltibia 13.7531
lfoot -20.6862 2.71719
ltoes -9.78108
989
root -7.78626 17.6277 3.28558 183.055 53.1455 177.776
lowerback 3.43443 0.544573 -2.43594
upperback 2.37949 0.715674 1.14019
thorax 0.474105 0.346509 2.51544
lowerneck -5.6355 -3.19938 -6.24951
upperneck 24.4279 -2.75574 1.17181
head 8.65165 -1.34711 1.26725
rclavicle 2.37548e-014 3.97569e-016
rhumerus -37.9196 -7.58177 -76.9534
rradius 26.7757
rwrist -1.0664
rhand -10.7894 15.9231
rfingers 7.12502
rthumb 15.2234 -13.4968
lclavicle 2.37548e-014 3.97569e-016
lhumerus -41.736 2.51487 81.3974
lradius 24.394
lwrist 4.7401
lhand -4.73306 29.825
lfingers 7.12502
lthumb 21.0499 58.7025
rfemur -29.5694 3.72705 18.589
rtibia 22.8464
rfoot -4.85487 -12.4853
rtoes -20.5853
lfemur 7.82424 -3.90144 -26.9277
ltibia 14.2477
lfoot -20.6435 2.44668
ltoes -10.5394
990
root -7.68886 17.6342 3.24492 183.04 53.1162 177.833
lowerback 3.54293 0.495135 -2.41557
upperback 2.39749 0.650775 1.30933
thorax 0.434501 0.314677 2.67933
lowerneck -5.53029 -3.18396 -6.4178
upperneck 24.2074 -2.73321 1.17307
head 8.55952 -1.3541 1.29771
rclavicle 2.98177e-015 -3.81667e-014
rhumerus -37.8733 -7.41974 -76.8503
rradius 26.8219
rwrist -1.01913
rhand -10.6545 15.8401
rfingers 7.12502
rthumb 15.3533 -13.5699
lclavicle 2.98177e-015 -3.81667e-014
lhumerus -41.8563 2.84776 81.5104
lradius 24.434
lwrist 4.69267
lhand -4.75547 29.9794
lfingers 7.12502
lthumb 21.0283 58.8593
rfemur -29.4396 3.63176 18.7726
rtibia 23.3541
rfoot -4.88302 -12.495
rtoes -19.6847
lfemur 7.97004 -3.71536 -26.7528
ltibia 14.7251
lfoot -20.5562 2.34297
ltoes -12.1847
991
root -7.5913 17.6418 3.20659 183.113 53.0484 178.01
lowerback 3.66948 0.456303 -2.29754
upperback 2.42728 0.603496 1.44816
thorax 0.397157 0.293109 2.7566
lowerneck -5.45911 -3.18039 -6.3906
upperneck 23.9802 -2.74191 1.11141
head 8.46748 -1.365 1.27069
rclavicle 3.54831e-014 1.51076e-014
rhumerus -37.8334 -7.4172 -76.7786
rradius 26.8304
rwrist -0.995573
rhand -10.6925 15.7323
rfingers 7.12502
rthumb 15.3167 -13.6805
lclavicle 3.54831e-014 1.51076e-014
lhumerus -41.9353 3.02167 81.6042
lradius 24.4746
lwrist 4.69233
lhand -4.76777 29.8026
lfingers 7.12502
lthumb 21.0165 58.6838
rfemur -29.2985 3.44081 19.0795
rtibia 23.8867
rfoot -4.95677 -12.4315
rtoes -19.3013
lfemur 8.1636 -3.6305 -26.4938
ltibia 15.1538
lfoot -20.3748 2.18963
ltoes -14.3913
992
root -7.49377 17.6479 3.16702 183.202 52.9406 178.206
lowerback 3.78356 0.449368 -2.07088
upperback 2.46625 0.602709 1.52824
thorax 0.374586 0.296125 2.71082
lowerneck -5.4276 -3.2371 -6.29278
upperneck 23.7731 -2.85268 1.09363
head 8.39261 -1.41426 1.23706
rclavicle 6.03311e-014 -2.90226e-014
rhumerus -37.8287 -7.54791 -76.7377
rradius 26.8683
rwrist -1.00039
rhand -10.9726 15.5132
rfingers 7.12502
rthumb 15.0469 -13.92
lclavicle 6.03311e-014 -2.90226e-014
lhumerus -42.0009 2.56859 81.9322
lradius 24.7153
lwrist 5.29962
lhand -4.79458 29.8576
lfingers 7.12502
lthumb 20.9908 58.7417
rfemur -29.0346 3.18694 19.403
rtibia 24.2252
rfoot -5.01095 -12.1935
rtoes -18.872
lfemur 8.40333 -3.45605 -26.1765
ltibia 15.4955
lfoot -20.0508 1.71071
ltoes -16.8586
993
root -7.39663 17.6572 3.12752 183.299 52.8625 178.344
lowerback 3.89408 0.433505 -1.89278
upperback 2.45509 0.587602 1.61539
thorax 0.302945 0.291865 2.69992
lowerneck -5.43641 -3.29033 -6.25265
upperneck 23.6499 -2.93713 1.05882
head 8.3542 -1.45668 1.20998
rclavicle -2.79292e-014 1.07344e-014
rhumerus -37.8464 -7.73057 -76.6328
rradius 26.9162
rwrist -0.944236
rhand -10.88 15.5303
rfingers 7.12502
rthumb 15.1361 -13.8962
lclavicle -2.79292e-014 1.07344e-014
lhumerus -42.138 2.31589 82.2153
lradius 25.0052
lwrist 5.76122
lhand -4.9584 29.8721
lfingers 7.12502
lthumb 20.8334 58.7736
rfemur -28.7031 2.9949 19.6678
rtibia 24.313
rfoot -5.09086 -11.8354
rtoes -17.448
lfemur 8.58335 -3.31524 -25.9016
ltibia 15.8137
lfoot -19.6505 1.31405
ltoes -17.558
994
root -7.29783 17.6765 3.08732 183.436 52.7913 178.527
lowerback 3.96782 0.403353 -1.68433
upperback 2.46374 0.556244 1.71582
thorax 0.273245 0.279259 2.68667
lowerneck -5.53154 -3.30668 -6.30812
upperneck 23.5919 -2.96788 1.10718
head 8.35489 -1.47444 1.23096
rclavicle -6.82825e-014 1.59028e-015
rhumerus -37.8217 -7.89537 -76.5486
rradius 26.9513
rwrist -0.924698
rhand -10.6638 15.7395
rfingers 7.12502
rthumb 15.3443 -13.6711
lclavicle -6.82825e-014 1.59028e-015
lhumerus -42.229 2.11552 82.4948
lradius 25.2871
lwrist 6.1025
lhand -4.93835 29.8901
lfingers 7.12502
lthumb 20.8526 58.7894
rfemur -28.3218 2.83166 19.963
rtibia 24.3221
rfoot -5.14882 -11.479
rtoes -15.4834
lfemur 8.6579 -3.39206 -25.6189
ltibia 16.2545
lfoot -19.2889 1.01663
ltoes -14.7855
995
root -7.19526 17.7173 3.04598 183.506 52.7332 178.63
lowerback 4.02451 0.35065 -1.56172
upperback 2.48721 0.492906 1.82094
thorax 0.269503 0.249414 2.7281
lowerneck -5.58063 -3.28009 -6.37577
upperneck 23.4349 -2.94732 1.15543
head 8.31158 -1.4703 1.25859
rclavicle -7.88181e-014 -6.36111e-015
rhumerus -37.719 -7.66649 -76.6421
rradius 27.01
rwrist -1.24185
rhand -10.7572 15.6992
rfingers 7.12502
rthumb 15.2544 -13.7184
lclavicle -7.88181e-014 -6.36111e-015
lhumerus -42.3 1.85895 82.7962
lradius 25.6151
lwrist 6.52972
lhand -4.57197 29.8146
lfingers 7.12502
lthumb 21.2046 58.6748
rfemur -27.854 2.68388 20.2074
rtibia 24.2483
rfoot -5.09515 -11.1936
rtoes -14.1678
lfemur 8.65192 -3.38079 -25.3315
ltibia 16.7753
lfoot -18.8771 0.517099
ltoes -12.3664
